<?xml version="1.0" encoding="utf-8"?>
<!-- Generator: Adobe Illustrator 16.0.0, SVG Export Plug-In . SVG Version: 6.00 Build 0)  -->
<!DOCTYPE svg PUBLIC "-//W3C//DTD SVG 1.1//EN" "http://www.w3.org/Graphics/SVG/1.1/DTD/svg11.dtd">
<svg version="1.1"
	 id="svg22344" xmlns:cc="http://creativecommons.org/ns#" xmlns:dc="http://purl.org/dc/elements/1.1/" xmlns:inkscape="http://www.inkscape.org/namespaces/inkscape" xmlns:rdf="http://www.w3.org/1999/02/22-rdf-syntax-ns#" xmlns:sodipodi="http://sodipodi.sourceforge.net/DTD/sodipodi-0.dtd" xmlns:svg="http://www.w3.org/2000/svg" sodipodi:docname="W31_0-inkscape-output.svg" inkscape:version="0.91 r13725"
	 xmlns="http://www.w3.org/2000/svg" xmlns:xlink="http://www.w3.org/1999/xlink" x="0px" y="0px" width="1008px" height="612px"
	 viewBox="0 0 1008 612" enable-background="new 0 0 1008 612"
         xml:space="preserve">
  <style id="thing-styles">
    @import url(../furnashings/thing_styles.css);
  </style>
<sodipodi:namedview  showgrid="false" pagecolor="#ffffff" objecttolerance="10" inkscape:zoom="0.078186275" inkscape:cy="-1767.8243" inkscape:cx="-1308.0539" guidetolerance="10" gridtolerance="10" bordercolor="#666666" borderopacity="1" id="namedview22346" inkscape:window-y="-8" inkscape:window-x="-8" inkscape:window-width="1440" inkscape:window-maximized="1" inkscape:window-height="897" inkscape:pageshadow="2" inkscape:pageopacity="0" inkscape:current-layer="g22352">
	</sodipodi:namedview>
<path id="path22368" fill="none" stroke="#000000" stroke-linecap="round" stroke-linejoin="round" stroke-miterlimit="10" d="
	M80.141,44.121v-1.954"/>
<path id="path22404" fill="none" stroke="#000000" stroke-linecap="round" stroke-linejoin="round" stroke-miterlimit="10" d="
	M82.583,215.025h48.829"/>
<path id="path22432" fill="none" stroke="#000000" stroke-linecap="round" stroke-linejoin="round" stroke-miterlimit="10" d="
	M519.609,46.562h155.033"/>
<path id="path22668" fill="none" stroke="#000000" stroke-linecap="round" stroke-linejoin="round" stroke-miterlimit="10" d="
	M82.583,244.812v-29.786"/>
<path id="path22670" fill="none" stroke="#000000" stroke-linecap="round" stroke-linejoin="round" stroke-miterlimit="10" d="
	M77.944,212.827v30.52"/>
<g id="g22700" transform="matrix(0,1,-1,0,9306.5,6374.5)">
	<path id="path22702" fill="none" stroke="#000000" stroke-linecap="round" stroke-linejoin="round" stroke-miterlimit="10" d="
		M-6185.354,9226.236c0-15.168-12.298-27.467-27.467-27.467"/>
</g>
<path id="path22704" fill="none" stroke="#000000" stroke-linecap="round" stroke-linejoin="round" stroke-miterlimit="10" d="
	M80.141,161.801h27.589"/>
<g id="g22742" transform="matrix(0,1,-1,0,12563.5,6856.5)">
	<path id="path22744" fill="none" stroke="#000000" stroke-linecap="round" stroke-linejoin="round" stroke-miterlimit="10" d="
		M-6812.501,11709.895c12.067,0,21.851-9.783,21.851-21.85"/>
</g>
<path id="path22746" fill="none" stroke="#000000" stroke-linecap="round" stroke-linejoin="round" stroke-miterlimit="10" d="
	M875.334,44.121V65.85"/>
<g id="g22748" transform="matrix(0,1,-1,0,12384.5,6856.5)">
	<path id="path22750" fill="none" stroke="#000000" stroke-linecap="round" stroke-linejoin="round" stroke-miterlimit="10" d="
		M-6790.65,11552.746c0-12.068-9.783-21.852-21.851-21.852"/>
</g>
<path id="path22752" fill="none" stroke="#000000" stroke-linecap="round" stroke-linejoin="round" stroke-miterlimit="10" d="
	M831.631,44.121V65.85"/>
<g id="g22754" transform="matrix(0,1,-1,0,9559.5,6856.5)">
	<path id="path22756" fill="none" stroke="#000000" stroke-linecap="round" stroke-linejoin="round" stroke-miterlimit="10" d="
		M-6812.501,9444.201c14.765,0,26.734-11.969,26.734-26.734"/>
</g>
<path id="path22758" fill="none" stroke="#000000" stroke-linecap="round" stroke-linejoin="round" stroke-miterlimit="10" d="
	M141.911,44.121v26.856"/>
<g id="g22886" transform="matrix(0,1,-1,0,9306.5,6006.5)">
	<path id="path22888" fill="none" stroke="#000000" stroke-linecap="round" stroke-linejoin="round" stroke-miterlimit="10" d="
		M-5727.02,9226.236c0-15.438-12.516-27.955-27.955-27.955"/>
</g>
<path id="path22890" fill="none" stroke="#000000" stroke-linecap="round" stroke-linejoin="round" stroke-miterlimit="10" d="
	M80.141,251.647h27.833"/>
<g id="g22892" transform="matrix(0,1,-1,0,9306.5,5778.5)">
	<path id="path22894" fill="none" stroke="#000000" stroke-linecap="round" stroke-linejoin="round" stroke-miterlimit="10" d="
		M-5471.312,9198.281c-15.438,0.002-27.952,12.518-27.952,27.955"/>
</g>
<path id="path22896" fill="none" stroke="#000000" stroke-linecap="round" stroke-linejoin="round" stroke-miterlimit="10" d="
	M80.141,307.313h27.833"/>
<path id="path22958" fill="none" stroke="#000000" stroke-linecap="round" stroke-linejoin="round" stroke-miterlimit="10" d="
	M519.609,44.121v28.321"/>
<g id="g23278" transform="matrix(0,1,-1,0,9291.5,6696.5)">
	<path id="path23280" fill="none" stroke="#000000" stroke-linecap="round" stroke-linejoin="round" stroke-miterlimit="10" d="
		M-6640.904,9214.9c0,15.168,12.297,27.467,27.467,27.467"/>
</g>
<path id="path23282" fill="none" stroke="#000000" stroke-linecap="round" stroke-linejoin="round" stroke-miterlimit="10" d="
	M76.478,83.185V55.596"/>
<path id="path23410" fill="none" stroke="#000000" stroke-linecap="round" stroke-linejoin="round" stroke-miterlimit="10" d="
	M8.605,461.615h69.339"/>
<path id="path23412" fill="none" stroke="#000000" stroke-linecap="round" stroke-linejoin="round" stroke-miterlimit="10" d="
	M8.605,453.803h69.339"/>
<path id="path23414" fill="none" stroke="#000000" stroke-linecap="round" stroke-linejoin="round" stroke-miterlimit="10" d="
	M8.605,446.234h69.339"/>
<path id="path23416" fill="none" stroke="#000000" stroke-linecap="round" stroke-linejoin="round" stroke-miterlimit="10" d="
	M8.605,438.665h69.339"/>
<path id="path23418" fill="none" stroke="#000000" stroke-linecap="round" stroke-linejoin="round" stroke-miterlimit="10" d="
	M8.605,431.097h69.339"/>
<path id="path23420" fill="none" stroke="#000000" stroke-linecap="round" stroke-linejoin="round" stroke-miterlimit="10" d="
	M8.605,423.284h69.339"/>
<path id="path23632" fill="none" stroke="#000000" stroke-linecap="round" stroke-linejoin="round" stroke-miterlimit="10" d="
	M522.051,195.249v19.043h17.578v-19.043H522.051"/>
<path id="path23674" fill="none" stroke="#000000" stroke-linecap="round" stroke-linejoin="round" stroke-miterlimit="10" d="
	M77.944,461.615H8.605 M8.605,421.087h69.339v40.528"/>
<path id="path23744" fill="none" stroke="#000000" stroke-linecap="round" stroke-linejoin="round" stroke-miterlimit="10" d="
	M783.777,77.813v19.043h17.336V77.813H783.777"/>
<path id="path23746" fill="none" stroke="#000000" stroke-linecap="round" stroke-linejoin="round" stroke-miterlimit="10" d="
	M672.934,77.813H655.6v19.043h17.334"/>
<path id="path23748" fill="none" stroke="#000000" stroke-linecap="round" stroke-linejoin="round" stroke-miterlimit="10" d="
	M523.516,77.813v19.043h17.578V77.813H523.516"/>
<path id="path23750" fill="none" stroke="#000000" stroke-linecap="round" stroke-linejoin="round" stroke-miterlimit="10" d="
	M392.163,78.546v19.043h17.579V78.546H392.163"/>
<path id="path23752" fill="none" stroke="#000000" stroke-linecap="round" stroke-linejoin="round" stroke-miterlimit="10" d="
	M263.252,79.278v19.043h17.579V79.278H263.252"/>
<path id="path23754" fill="none" stroke="#000000" stroke-linecap="round" stroke-linejoin="round" stroke-miterlimit="10" d="
	M130.679,81.476v19.288h17.335V81.476H130.679"/>
<polyline fill="none" stroke="#000000" stroke-linecap="round" stroke-linejoin="round" stroke-miterlimit="10" points="
	148.99,210.63 148.99,195.98 131.41,195.98 131.41,210.63 131.41,215.03 148.99,215.03 "/>
<path id="path23762" fill="none" stroke="#000000" stroke-linecap="round" stroke-linejoin="round" stroke-miterlimit="10" d="
	M261.788,196.714v19.044h17.579v-19.044H261.788"/>
<path id="path23764" fill="none" stroke="#000000" stroke-linecap="round" stroke-linejoin="round" stroke-miterlimit="10" d="
	M392.163,197.446v19.288h17.579v-19.288H392.163"/>
<path id="path23766" fill="none" stroke="#000000" stroke-linecap="round" stroke-linejoin="round" stroke-miterlimit="10" d="
	M654.623,194.517v19.043h17.578v-19.043H654.623"/>
<path id="path23768" fill="none" stroke="#000000" stroke-linecap="round" stroke-linejoin="round" stroke-miterlimit="10" d="
	M782.068,193.784v19.043h17.58v-19.043H782.068"/>
<path id="path23770" fill="none" stroke="#000000" stroke-linecap="round" stroke-linejoin="round" stroke-miterlimit="10" d="
	M782.068,313.417v19.288h17.58v-19.288H782.068"/>
<path id="path23772" fill="none" stroke="#000000" stroke-linecap="round" stroke-linejoin="round" stroke-miterlimit="10" d="
	M655.6,313.417v19.288h17.334v-19.288H655.6"/>
<path id="path23774" fill="none" stroke="#000000" stroke-linecap="round" stroke-linejoin="round" stroke-miterlimit="10" d="
	M522.051,313.417v19.288h17.578v-19.288H522.051"/>
<path id="path23776" fill="none" stroke="#000000" stroke-linecap="round" stroke-linejoin="round" stroke-miterlimit="10" d="
	M393.14,313.417v19.288h17.334v-19.288H393.14"/>
<polyline fill="none" stroke="#000000" stroke-linecap="round" stroke-linejoin="round" stroke-miterlimit="10" points="
	263.98,333.44 281.56,333.44 281.56,314.39 263.98,314.39 263.98,330.26 "/>
<polyline fill="none" stroke="#000000" stroke-linecap="round" stroke-linejoin="round" stroke-miterlimit="10" points="
	148.01,330.26 148.01,314.39 130.68,314.39 130.68,330.26 "/>
<path id="path23796" fill="none" stroke="#000000" stroke-linecap="round" stroke-linejoin="round" stroke-miterlimit="10" d="
	M670.004,488.228v-26.612"/>
<path id="path23798" fill="none" stroke="#000000" stroke-linecap="round" stroke-linejoin="round" stroke-miterlimit="10" d="
	M670.004,461.615h-17.578v26.612"/>
<path id="path23800" fill="none" stroke="#000000" stroke-linecap="round" stroke-linejoin="round" stroke-miterlimit="10" d="
	M409.009,488.228v-26.612"/>
<path id="path23802" fill="none" stroke="#000000" stroke-linecap="round" stroke-linejoin="round" stroke-miterlimit="10" d="
	M409.009,461.615H391.43v26.612"/>
<path id="path23804" fill="none" stroke="#000000" stroke-linecap="round" stroke-linejoin="round" stroke-miterlimit="10" d="
	M147.282,488.228v-26.612"/>
<path id="path23806" fill="none" stroke="#000000" stroke-linecap="round" stroke-linejoin="round" stroke-miterlimit="10" d="
	M147.282,461.615h-17.579v26.612"/>
<path id="path23968" fill="none" stroke="#000000" stroke-linecap="round" stroke-linejoin="round" stroke-miterlimit="10" d="
	M916.352,488.228H671.469"/>
<path id="path23974" fill="none" stroke="#000000" stroke-linecap="round" stroke-linejoin="round" stroke-miterlimit="10" d="
	M188.542,44.121h-46.632"/>
<path id="path23976" fill="none" stroke="#000000" stroke-linecap="round" stroke-linejoin="round" stroke-miterlimit="10" d="
	M141.911,48.76h46.632"/>
<path id="path24002" fill="none" stroke="#000000" stroke-linecap="round" stroke-linejoin="round" stroke-miterlimit="10" d="
	M937.836,53.398h-21.484"/>
<path id="path24074" fill="none" stroke="#000000" stroke-linecap="round" stroke-linejoin="round" stroke-miterlimit="10" d="
	M916.352,53.398v180.67"/>
<path id="path24182" fill="none" stroke="#000000" stroke-linecap="round" stroke-linejoin="round" stroke-miterlimit="10" d="
	M916.352,350.039v138.188"/>
<path id="path24204" fill="none" stroke="#000000" stroke-linecap="round" stroke-linejoin="round" stroke-miterlimit="10" d="
	M218.329,488.228H65.003"/>
<path id="path24322" fill="none" stroke="#000000" stroke-linecap="round" stroke-linejoin="round" stroke-miterlimit="10" d="
	M916.352,234.068v115.971"/>
<path id="path24350" fill="none" stroke="#000000" stroke-linecap="round" stroke-linejoin="round" stroke-miterlimit="10" d="
	M671.469,488.228h-453.14"/>
<path id="path24726" fill="none" stroke="#000000" stroke-linecap="round" stroke-linejoin="round" stroke-miterlimit="10" d="
	M892.668,46.562l23.684,10.498"/>
<path id="path24728" fill="none" stroke="#000000" stroke-linecap="round" stroke-linejoin="round" stroke-miterlimit="10" d="
	M916.352,53.643l-26.613-11.72"/>
<path id="path24742" fill="none" stroke="#000000" stroke-linecap="round" stroke-linejoin="round" stroke-miterlimit="10" d="
	M491.532,41.923v4.64H265.694"/>
<polyline fill="none" stroke="#000000" stroke-linecap="round" stroke-linejoin="round" stroke-miterlimit="10" points="
	77.94,488.23 77.94,461.62 77.94,453.8 77.94,446.23 77.94,438.67 77.94,431.1 77.94,423.28 77.94,421.09 77.94,307.31 
	80.14,307.31 82.58,307.31 82.58,330.26 "/>
<line fill="none" stroke="#000000" stroke-linecap="round" stroke-linejoin="round" stroke-miterlimit="10" x1="82.58" y1="488.23" x2="82.58" y2="333.44"/>
<path id="path24758" fill="none" stroke="#000000" stroke-linecap="round" stroke-linejoin="round" stroke-miterlimit="10" d="
	M82.583,210.63v-21.484h-4.639v23.682"/>
<path id="path24760" fill="none" stroke="#000000" stroke-linecap="round" stroke-linejoin="round" stroke-miterlimit="10" d="
	M77.944,243.347v8.301h4.639v-6.836"/>
<path id="path24770" fill="none" stroke="#000000" stroke-linecap="round" stroke-linejoin="round" stroke-miterlimit="10" d="
	M188.542,41.923v2.198"/>
<path id="path24772" fill="none" stroke="#000000" stroke-linecap="round" stroke-linejoin="round" stroke-miterlimit="10" d="
	M188.542,46.562h77.151"/>
<path id="path24774" fill="none" stroke="#000000" stroke-linecap="round" stroke-linejoin="round" stroke-miterlimit="10" d="
	M77.944,81.476h-1.466v3.174h1.466"/>
<path id="path24778" fill="none" stroke="#000000" stroke-linecap="round" stroke-linejoin="round" stroke-miterlimit="10" d="
	M77.944,146.419v15.382h4.639v-15.382"/>
<path id="path24786" fill="none" stroke="#000000" stroke-linecap="round" stroke-linejoin="round" stroke-miterlimit="10" d="
	M673.91,488.228v-93.021"/>
<path id="path24788" fill="none" stroke="#000000" stroke-linecap="round" stroke-linejoin="round" stroke-miterlimit="10" d="
	M669.271,398.137v63.479"/>
<path id="path24790" fill="none" stroke="#000000" stroke-linecap="round" stroke-linejoin="round" stroke-miterlimit="10" d="
	M674.643,46.562h156.988v-4.64"/>
<path id="path24792" fill="none" stroke="#000000" stroke-linecap="round" stroke-linejoin="round" stroke-miterlimit="10" d="
	M519.609,41.923v4.64"/>
<path id="path24798" fill="none" stroke="#000000" stroke-linecap="round" stroke-linejoin="round" stroke-miterlimit="10" d="
	M875.334,41.923v4.64h17.334"/>
<path id="path25082" fill="none" stroke="#000000" stroke-linecap="round" stroke-linejoin="round" stroke-miterlimit="10" d="
	M131.412,210.63H82.583"/>
<rect x="82.58" y="330.26" fill="none" stroke="#000000" stroke-linecap="round" stroke-linejoin="round" stroke-miterlimit="10" width="6.92" height="3.181"/>
<polygon fill="none" stroke="#000000" stroke-linecap="round" stroke-linejoin="round" stroke-miterlimit="10" points="
	263.98,330.26 263.98,333.44 117.088,333.565 117.088,330.385 216.13,330.26 216.13,215.03 148.99,215.03 148.99,210.63 
	216.13,210.63 216.13,146.42 77.94,146.42 77.94,44.12 88.69,44.12 88.69,48.76 82.58,48.76 82.58,141.78 220.53,141.78 
	220.53,330.26 "/>
<g id="g26998" transform="matrix(0,1,-1,0,11106.5,6856.5)">
	<path id="path27000" fill="none" stroke="#000000" stroke-linecap="round" stroke-linejoin="round" stroke-miterlimit="10" d="
		M-6812.501,10614.969c15.573,0,28.199-12.625,28.199-28.199"/>
</g>
<path id="path27002" fill="none" stroke="#000000" stroke-linecap="round" stroke-linejoin="round" stroke-miterlimit="10" d="
	M261.788,196.714h-41.261"/>
<path id="path27004" fill="none" stroke="#000000" stroke-linecap="round" stroke-linejoin="round" stroke-miterlimit="10" d="
	M261.788,199.888h-41.261"/>
<path id="path27006" fill="none" stroke="#000000" stroke-linecap="round" stroke-linejoin="round" stroke-miterlimit="10" d="
	M188.542,46.562v2.197"/>
<path id="path27008" fill="none" stroke="#000000" stroke-linecap="round" stroke-linejoin="round" stroke-miterlimit="10" d="
	M193.182,141.78v-5.127"/>
<path id="path27010" fill="none" stroke="#000000" stroke-linecap="round" stroke-linejoin="round" stroke-miterlimit="10" d="
	M193.182,134.212v-7.324"/>
<path id="path27012" fill="none" stroke="#000000" stroke-linecap="round" stroke-linejoin="round" stroke-miterlimit="10" d="
	M193.182,124.445v-7.324"/>
<path id="path27014" fill="none" stroke="#000000" stroke-linecap="round" stroke-linejoin="round" stroke-miterlimit="10" d="
	M193.182,114.68v-7.324"/>
<path id="path27016" fill="none" stroke="#000000" stroke-linecap="round" stroke-linejoin="round" stroke-miterlimit="10" d="
	M193.182,104.914v-7.325"/>
<path id="path27018" fill="none" stroke="#000000" stroke-linecap="round" stroke-linejoin="round" stroke-miterlimit="10" d="
	M193.182,95.147v-7.324"/>
<path id="path27020" fill="none" stroke="#000000" stroke-linecap="round" stroke-linejoin="round" stroke-miterlimit="10" d="
	M193.182,85.382v-5.371"/>
<path id="path27022" fill="none" stroke="#000000" stroke-linecap="round" stroke-linejoin="round" stroke-miterlimit="10" d="
	M188.542,141.78v-7.812"/>
<path id="path27024" fill="none" stroke="#000000" stroke-linecap="round" stroke-linejoin="round" stroke-miterlimit="10" d="
	M188.542,131.526v-7.325"/>
<path id="path27026" fill="none" stroke="#000000" stroke-linecap="round" stroke-linejoin="round" stroke-miterlimit="10" d="
	M188.542,121.76v-7.324"/>
<path id="path27028" fill="none" stroke="#000000" stroke-linecap="round" stroke-linejoin="round" stroke-miterlimit="10" d="
	M188.542,111.994v-7.324"/>
<path id="path27030" fill="none" stroke="#000000" stroke-linecap="round" stroke-linejoin="round" stroke-miterlimit="10" d="
	M188.542,102.229v-7.325"/>
<path id="path27032" fill="none" stroke="#000000" stroke-linecap="round" stroke-linejoin="round" stroke-miterlimit="10" d="
	M188.542,92.462v-7.812"/>
<path id="path27034" fill="none" stroke="#000000" stroke-linecap="round" stroke-linejoin="round" stroke-miterlimit="10" d="
	M193.182,80.011h-5.86"/>
<path id="path27036" fill="none" stroke="#000000" stroke-linecap="round" stroke-linejoin="round" stroke-miterlimit="10" d="
	M184.88,80.011h-7.324"/>
<path id="path27038" fill="none" stroke="#000000" stroke-linecap="round" stroke-linejoin="round" stroke-miterlimit="10" d="
	M175.115,80.011H169.5"/>
<path id="path27040" fill="none" stroke="#000000" stroke-linecap="round" stroke-linejoin="round" stroke-miterlimit="10" d="
	M188.542,84.649h-8.301"/>
<path id="path27042" fill="none" stroke="#000000" stroke-linecap="round" stroke-linejoin="round" stroke-miterlimit="10" d="
	M177.8,84.649H169.5v-4.639v-0.732"/>
<path id="path27044" fill="none" stroke="#000000" stroke-linecap="round" stroke-linejoin="round" stroke-miterlimit="10" d="
	M169.5,74.151v-0.977"/>
<path id="path27046" fill="none" stroke="#000000" stroke-linecap="round" stroke-linejoin="round" stroke-miterlimit="10" d="
	M169.5,68.048V67.07"/>
<path id="path27048" fill="none" stroke="#000000" stroke-linecap="round" stroke-linejoin="round" stroke-miterlimit="10" d="
	M169.5,61.943v-0.977"/>
<path id="path27050" fill="none" stroke="#000000" stroke-linecap="round" stroke-linejoin="round" stroke-miterlimit="10" d="
	M169.5,55.84v-0.977"/>
<path id="path27052" fill="none" stroke="#000000" stroke-linecap="round" stroke-linejoin="round" stroke-miterlimit="10" d="
	M169.5,49.736V48.76"/>
<g id="g27054" transform="matrix(0,1,-1,0,9341.5,6856.5)">
	<path id="path27056" fill="none" stroke="#000000" stroke-linecap="round" stroke-linejoin="round" stroke-miterlimit="10" d="
		M-6785.767,9252.691c0-14.764-11.97-26.734-26.734-26.734"/>
</g>
<line fill="none" stroke="#000000" stroke-linecap="round" stroke-linejoin="round" stroke-miterlimit="10" x1="88.69" y1="70.98" x2="88.69" y2="48.76"/>
<path id="path27102" fill="none" stroke="#000000" stroke-linecap="round" stroke-linejoin="round" stroke-miterlimit="10" d="
	M391.43,461.615v-66.408"/>
<path id="path27104" fill="none" stroke="#000000" stroke-linecap="round" stroke-linejoin="round" stroke-miterlimit="10" d="
	M394.605,461.615v-63.479"/>
<path id="path27106" fill="none" stroke="#000000" stroke-linecap="round" stroke-linejoin="round" stroke-miterlimit="10" d="
	M391.43,395.207h59.573"/>
<path id="path27108" fill="none" stroke="#000000" stroke-linecap="round" stroke-linejoin="round" stroke-miterlimit="10" d="
	M478.592,395.207h61.769"/>
<path id="path27110" fill="none" stroke="#000000" stroke-linecap="round" stroke-linejoin="round" stroke-miterlimit="10" d="
	M567.707,395.207H673.91"/>
<path id="path27112" fill="none" stroke="#000000" stroke-linecap="round" stroke-linejoin="round" stroke-miterlimit="10" d="
	M394.605,398.137h56.398"/>
<path id="path27114" fill="none" stroke="#000000" stroke-linecap="round" stroke-linejoin="round" stroke-miterlimit="10" d="
	M478.592,398.137h55.666"/>
<path id="path27116" fill="none" stroke="#000000" stroke-linecap="round" stroke-linejoin="round" stroke-miterlimit="10" d="
	M537.188,398.137h3.174"/>
<path id="path27118" fill="none" stroke="#000000" stroke-linecap="round" stroke-linejoin="round" stroke-miterlimit="10" d="
	M567.707,398.137h101.564"/>
<path id="path27120" fill="none" stroke="#000000" stroke-linecap="round" stroke-linejoin="round" stroke-miterlimit="10" d="
	M451.003,395.207v2.93"/>
<path id="path27122" fill="none" stroke="#000000" stroke-linecap="round" stroke-linejoin="round" stroke-miterlimit="10" d="
	M478.592,395.207v2.93"/>
<path id="path27124" fill="none" stroke="#000000" stroke-linecap="round" stroke-linejoin="round" stroke-miterlimit="10" d="
	M540.361,395.207v2.93"/>
<path id="path27126" fill="none" stroke="#000000" stroke-linecap="round" stroke-linejoin="round" stroke-miterlimit="10" d="
	M567.707,395.207v2.93"/>
<path id="path27128" fill="none" stroke="#000000" stroke-linecap="round" stroke-linejoin="round" stroke-miterlimit="10" d="
	M537.188,398.137v90.091"/>
<path id="path27130" fill="none" stroke="#000000" stroke-linecap="round" stroke-linejoin="round" stroke-miterlimit="10" d="
	M534.258,398.137v90.091"/>
<path id="path27132" fill="none" stroke="#000000" stroke-linecap="round" stroke-linejoin="round" stroke-miterlimit="10" d="
	M451.003,395.207v-27.589"/>
<g id="g27134" transform="matrix(0,1,-1,0,10825.5,5418.5)">
	<path id="path27136" fill="none" stroke="#000000" stroke-linecap="round" stroke-linejoin="round" stroke-miterlimit="10" d="
		M-5023.418,10346.908c-15.168,0.002-27.464,12.299-27.464,27.467"/>
</g>
<path id="path27138" fill="none" stroke="#000000" stroke-linecap="round" stroke-linejoin="round" stroke-miterlimit="10" d="
	M540.361,395.207v-27.589"/>
<g id="g27140" transform="matrix(0,1,-1,0,11191.5,5418.5)">
	<path id="path27142" fill="none" stroke="#000000" stroke-linecap="round" stroke-linejoin="round" stroke-miterlimit="10" d="
		M-5023.418,10623.549c-15.168,0.002-27.464,12.299-27.464,27.467"/>
</g>
<path id="path27218" fill="none" d="M618,451.85h5.129"/>
<g>
	<path fill="none" stroke="#FFFF00" d="M917.734,43.958v449.234"/>
	<path fill="none" stroke="#FFFF00" d="M771.244,43.958v449.234"/>
	<path fill="none" stroke="#FFFF00" d="M624.756,43.958v449.234"/>
	<path fill="none" stroke="#FFFF00" d="M478.266,43.958v449.234"/>
	<path fill="none" stroke="#FFFF00" d="M331.777,43.958v449.234"/>
	<path fill="none" stroke="#FFFF00" d="M185.288,43.958v449.234"/>
	<path fill="none" stroke="#FFFF00" d="M74.607,43.958h843.127"/>
	<path fill="none" stroke="#FFFF00" d="M74.607,190.447h843.127"/>
	<path fill="none" stroke="#FFFF00" d="M74.607,336.937h843.127"/>
	<path fill="none" stroke="#FFFF00" d="M74.607,483.426h843.127"/>
</g>
<g id="drawingScale" transform="translate(250.000000,-290.000000)">
	
		<rect x="256.02" y="873.53" stroke="#000000" stroke-width="4" stroke-linecap="round" stroke-linejoin="round" stroke-miterlimit="10" width="146.49" height="18.31"/>
	
		<rect x="109.53" y="855.22" stroke="#000000" stroke-width="4" stroke-linecap="round" stroke-linejoin="round" stroke-miterlimit="10" width="146.49" height="18.311"/>
	
		<polyline fill="none" stroke="#000000" stroke-width="4" stroke-linecap="round" stroke-linejoin="round" stroke-miterlimit="10" points="
		256.02,855.22 402.51,855.22 402.51,873.53 	"/>
	
		<rect x="36.28" y="873.53" stroke="#000000" stroke-width="4" stroke-linecap="round" stroke-linejoin="round" stroke-miterlimit="10" width="73.25" height="18.31"/>
	
		<line fill="none" stroke="#000000" stroke-width="4" stroke-linecap="round" stroke-linejoin="round" stroke-miterlimit="10" x1="256.02" y1="891.84" x2="109.53" y2="891.84"/>
	
		<rect x="-36.96" y="855.22" stroke="#000000" stroke-width="4" stroke-linecap="round" stroke-linejoin="round" stroke-miterlimit="10" width="73.24" height="18.311"/>
	
		<line fill="none" stroke="#000000" stroke-width="4" stroke-linecap="round" stroke-linejoin="round" stroke-miterlimit="10" x1="109.53" y1="855.22" x2="36.28" y2="855.22"/>
	
		<polyline fill="none" stroke="#000000" stroke-width="4" stroke-linecap="round" stroke-linejoin="round" stroke-miterlimit="10" points="
		-36.96,873.53 -36.96,891.84 36.28,891.84 	"/>
	
		<path id="path28258" fill="none" stroke="#000000" stroke-width="4" stroke-linecap="round" stroke-linejoin="round" stroke-miterlimit="10" d="
		M-36.96,891.839v9.277"/>
	
		<line fill="none" stroke="#000000" stroke-width="4" stroke-linecap="round" stroke-linejoin="round" stroke-miterlimit="10" x1="109.53" y1="901.12" x2="109.53" y2="891.84"/>
	
		<line fill="none" stroke="#000000" stroke-width="4" stroke-linecap="round" stroke-linejoin="round" stroke-miterlimit="10" x1="256.02" y1="901.12" x2="256.02" y2="891.84"/>
	
		<path id="path28270" fill="none" stroke="#000000" stroke-width="4" stroke-linecap="round" stroke-linejoin="round" stroke-miterlimit="10" d="
		M402.508,891.839v9.277"/>
	<text transform="matrix(1 0 0 1 -42.8203 928.4609)" font-family="'ArialNarrow'" font-size="25.3915">       </text>
	<text transform="matrix(1 0 0 1 -42.8203 928.4609)" font-family="'ArialNarrow'" font-size="25.3915">0</text>
	<text transform="matrix(1 0 0 1 -31.2407 928.4609)" font-family="'ArialNarrow'" font-size="25.3915">     </text>
	<text transform="matrix(1 0 0 1 97.8091 928.4609)" font-family="'ArialNarrow'" font-size="25.3915">       </text>
	<text transform="matrix(1 0 0 1 97.8091 928.4609)" font-family="'ArialNarrow'" font-size="25.3915">1</text>
	<text transform="matrix(1 0 0 1 109.3872 928.4609)" font-family="'ArialNarrow'" font-size="25.3915">6</text>
	<text transform="matrix(1 0 0 1 120.9673 928.4609)" font-family="'ArialNarrow'" font-size="25.3915">     </text>
	<text transform="matrix(1 0 0 1 244.2988 928.4609)" font-family="'ArialNarrow'" font-size="25.3915">       </text>
	<text transform="matrix(1 0 0 1 244.2988 928.4609)" font-family="'ArialNarrow'" font-size="25.3915">3</text>
	<text transform="matrix(1 0 0 1 255.877 928.4609)" font-family="'ArialNarrow'" font-size="25.3915">2</text>
	<text transform="matrix(1 0 0 1 267.457 928.4609)" font-family="'ArialNarrow'" font-size="25.3915">     </text>
	<text transform="matrix(1 0 0 1 390.7881 928.4609)" font-family="'ArialNarrow'" font-size="25.3915">       </text>
	<text transform="matrix(1 0 0 1 390.7881 928.4609)" font-family="'ArialNarrow'" font-size="25.3915">4</text>
	<text transform="matrix(1 0 0 1 402.3672 928.4609)" font-family="'ArialNarrow'" font-size="25.3915">8</text>
	<text transform="matrix(1 0 0 1 413.9453 928.4609)" font-family="'ArialNarrow'" font-size="25.3915">     </text>
	<text transform="matrix(1 0 0 1 -36.9604 846.1826)" font-family="'ArialNarrow'" font-size="25.3915">       </text>
	<text transform="matrix(1 0 0 1 -36.9604 846.1826)" font-family="'ArialNarrow'" font-size="25.3915">G</text>
	<text transform="matrix(1 0 0 1 -20.7612 846.1826)" font-family="'ArialNarrow'" font-size="25.3915">R</text>
	<text transform="matrix(1 0 0 1 -5.73 846.1826)" font-family="'ArialNarrow'" font-size="25.3915">A</text>
	<text transform="matrix(1 0 0 1 8.1597 846.1826)" font-family="'ArialNarrow'" font-size="25.3915">P</text>
	<text transform="matrix(1 0 0 1 22.0493 846.1826)" font-family="'ArialNarrow'" font-size="25.3915">H</text>
	<text transform="matrix(1 0 0 1 37.0806 846.1826)" font-family="'ArialNarrow'" font-size="25.3915">I</text>
	<text transform="matrix(1 0 0 1 42.8696 846.1826)" font-family="'ArialNarrow'" font-size="25.3915">C</text>
	<text transform="matrix(1 0 0 1 57.9009 846.1826)" font-family="'ArialNarrow'" font-size="25.3915"> </text>
	<text transform="matrix(1 0 0 1 63.6909 846.1826)" font-family="'ArialNarrow'" font-size="25.3915">S</text>
	<text transform="matrix(1 0 0 1 77.5806 846.1826)" font-family="'ArialNarrow'" font-size="25.3915">C</text>
	<text transform="matrix(1 0 0 1 92.6118 846.1826)" font-family="'ArialNarrow'" font-size="25.3915">A</text>
	<text transform="matrix(1 0 0 1 106.5005 846.1826)" font-family="'ArialNarrow'" font-size="25.3915">L</text>
	<text transform="matrix(1 0 0 1 118.0796 846.1826)" font-family="'ArialNarrow'" font-size="25.3915">E</text>
	<text transform="matrix(1 0 0 1 131.9653 846.1826)" font-family="'ArialNarrow'" font-size="25.3915">     </text>
	<text transform="matrix(1 0 0 1 349.0391 846.1826)" font-family="'ArialNarrow'" font-size="25.3915">       </text>
	<text transform="matrix(1 0 0 1 349.0391 846.1826)" font-family="'ArialNarrow'" font-size="25.3915">F</text>
	<text transform="matrix(1 0 0 1 361.7598 846.1826)" font-family="'ArialNarrow'" font-size="25.3915">E</text>
	<text transform="matrix(1 0 0 1 375.6484 846.1826)" font-family="'ArialNarrow'" font-size="25.3915">E</text>
	<text transform="matrix(1 0 0 1 389.5381 846.1826)" font-family="'ArialNarrow'" font-size="25.3915">T</text>
	<text transform="matrix(1 0 0 1 402.2588 846.1826)" font-family="'ArialNarrow'" font-size="25.3915">     </text>
</g>
<g id="real-world" transform="translate(964.000000,467.000000)
                              scale(-2.812500,2.812500)
                              scale(3.27, 3.27)
                              translate(4.8, -46)">
</g>
<path id="path27132_1_" fill="none" stroke="#000000" stroke-linecap="round" stroke-linejoin="round" stroke-miterlimit="10" d="
	M89.5,361.029V333.44"/>
<g id="g27134_1_" transform="matrix(0,1,-1,0,10825.5,5418.5)">
	<path id="path27136_1_" fill="none" stroke="#000000" stroke-linecap="round" stroke-linejoin="round" stroke-miterlimit="10" d="
		M-5057.471,10735.879c0-15.168-12.296-27.465-27.464-27.467"/>
</g>
</svg>
